<svg xmlns="http://www.w3.org/2000/svg" xmlns:xlink="http://www.w3.org/1999/xlink" width="450" zoomAndPan="magnify" viewBox="0 0 337.5 74.999997" height="100" preserveAspectRatio="xMidYMid meet" version="1.0"><defs><clipPath id="25d0094923"><path d="M 45 35 L 69 35 L 69 72.988281 L 45 72.988281 Z M 45 35 " clip-rule="nonzero"/></clipPath><clipPath id="b98d8a7b2b"><path d="M 3 2.59375 L 68 2.59375 L 68 72.988281 L 3 72.988281 Z M 3 2.59375 " clip-rule="nonzero"/></clipPath><clipPath id="76420ccdec"><path d="M 77.820312 4.28125 L 112 4.28125 L 112 30 L 77.820312 30 Z M 77.820312 4.28125 " clip-rule="nonzero"/></clipPath><clipPath id="5eb405e28c"><path d="M 164 4.28125 L 184 4.28125 L 184 30 L 164 30 Z M 164 4.28125 " clip-rule="nonzero"/></clipPath><clipPath id="728d6c3972"><path d="M 270 4.28125 L 290 4.28125 L 290 30 L 270 30 Z M 270 4.28125 " clip-rule="nonzero"/></clipPath><clipPath id="4ee0b9d920"><path d="M 266 52 L 278 52 L 278 72.433594 L 266 72.433594 Z M 266 52 " clip-rule="nonzero"/></clipPath><clipPath id="958ecb75bd"><path d="M 52.511719 4.28125 L 62.246094 4.28125 L 62.246094 9.523438 L 52.511719 9.523438 Z M 52.511719 4.28125 " clip-rule="nonzero"/></clipPath></defs><path fill="#ffffff" d="M 49.90625 44.273438 C 49.554688 44.636719 49.253906 45.011719 49 45.390625 C 49.0625 45.328125 49.125 45.273438 49.191406 45.226562 C 50.316406 44.382812 51.082031 43.660156 51.476562 43.054688 C 51.875 42.449219 52.074219 41.972656 52.074219 41.625 C 52.058594 41.273438 52.019531 41.058594 51.953125 40.976562 C 51.90625 41.347656 51.722656 41.796875 51.40625 42.339844 C 51.105469 42.878906 50.605469 43.523438 49.90625 44.273438 " fill-opacity="1" fill-rule="evenodd"/><g clip-path="url(#25d0094923)"><path fill="#d19400" d="M 53.027344 39.167969 C 52.757812 39.148438 52.527344 39.054688 52.335938 38.878906 C 52.160156 38.691406 52.066406 38.457031 52.050781 38.1875 C 52.066406 37.902344 52.160156 37.671875 52.335938 37.496094 C 52.527344 37.304688 52.757812 37.210938 53.027344 37.210938 C 53.3125 37.210938 53.542969 37.304688 53.71875 37.496094 C 53.910156 37.671875 54.003906 37.902344 54.003906 38.1875 C 54.003906 38.457031 53.910156 38.691406 53.71875 38.878906 C 53.542969 39.054688 53.3125 39.148438 53.027344 39.167969 M 67.660156 47.136719 C 66.929688 44.84375 65.640625 42.679688 63.800781 40.644531 C 62.320312 39.039062 60.75 37.824219 59.082031 36.996094 C 57.398438 36.183594 55.785156 35.808594 54.242188 35.875 C 52.6875 35.9375 51.375 36.488281 50.308594 37.519531 C 49.660156 38.1875 49.191406 38.984375 48.90625 39.90625 C 49.0625 39.859375 49.246094 39.828125 49.453125 39.808594 C 49.53125 39.796875 49.621094 39.785156 49.714844 39.785156 C 50.269531 39.785156 50.753906 39.921875 51.167969 40.191406 C 51.375 40.320312 51.546875 40.480469 51.691406 40.667969 C 51.789062 40.75 51.867188 40.84375 51.929688 40.957031 C 51.929688 40.957031 51.9375 40.964844 51.953125 40.976562 C 52.019531 41.058594 52.050781 41.273438 52.050781 41.625 C 52.066406 41.972656 51.875 42.449219 51.476562 43.054688 C 51.082031 43.660156 50.316406 44.390625 49.191406 45.25 C 49.125 45.296875 49.0625 45.347656 49 45.390625 C 48.585938 45.710938 48.210938 46.042969 47.878906 46.394531 C 47.101562 47.222656 46.523438 48.105469 46.140625 49.042969 C 45.757812 49.964844 45.519531 50.871094 45.425781 51.761719 C 45.328125 53.304688 45.496094 54.753906 45.925781 56.105469 C 46.355469 57.441406 47.007812 58.632812 47.878906 59.683594 C 48.210938 59.523438 48.636719 59.261719 49.144531 58.894531 C 49.652344 58.53125 50.175781 58.035156 50.714844 57.417969 C 51.238281 56.796875 51.707031 56.035156 52.121094 55.128906 C 52.519531 54.203125 52.78125 53.105469 52.90625 51.832031 C 52.925781 51.851562 52.949219 52.183594 52.980469 52.835938 C 53.011719 53.472656 52.957031 54.277344 52.8125 55.246094 C 52.652344 56.234375 52.304688 57.242188 51.765625 58.273438 C 51.222656 59.328125 50.390625 60.257812 49.261719 61.066406 C 50.550781 62.164062 52.082031 62.9375 53.859375 63.382812 L 53.859375 72.066406 L 55.171875 72.066406 L 55.171875 63.644531 C 56.09375 63.753906 57 63.753906 57.886719 63.644531 L 57.886719 72.066406 L 59.199219 72.066406 L 59.199219 63.40625 C 61.105469 62.914062 62.789062 61.992188 64.253906 60.640625 C 65.714844 59.285156 66.792969 57.617188 67.492188 55.628906 C 67.699219 55.054688 67.859375 54.449219 67.96875 53.816406 C 68.175781 52.6875 68.253906 51.550781 68.207031 50.402344 C 68.160156 49.257812 67.976562 48.167969 67.660156 47.136719 " fill-opacity="1" fill-rule="evenodd"/></g><g clip-path="url(#b98d8a7b2b)"><path fill="#3d9cd9" d="M 37.273438 9.605469 C 36.796875 9.589844 36.402344 9.421875 36.082031 9.105469 C 35.75 8.789062 35.582031 8.382812 35.582031 7.890625 C 35.582031 7.410156 35.75 7.003906 36.082031 6.671875 C 36.402344 6.351562 36.796875 6.1875 37.273438 6.171875 C 37.765625 6.1875 38.171875 6.351562 38.488281 6.671875 C 38.808594 7.003906 38.972656 7.410156 38.988281 7.890625 C 38.972656 8.382812 38.808594 8.789062 38.488281 9.105469 C 38.171875 9.421875 37.765625 9.589844 37.273438 9.605469 M 55.625 25.519531 C 52.972656 24.121094 50.308594 23.230469 47.640625 22.847656 L 47.664062 22.824219 C 47.664062 22.839844 47.632812 22.839844 47.570312 22.824219 C 47.332031 22.792969 47.09375 22.757812 46.855469 22.726562 C 46.234375 22.664062 45.457031 22.511719 44.519531 22.273438 C 43.566406 22.035156 42.605469 21.582031 41.636719 20.914062 C 40.667969 20.230469 39.847656 19.203125 39.179688 17.835938 C 38.796875 16.867188 38.648438 16.0625 38.726562 15.429688 C 38.710938 15.363281 38.703125 15.300781 38.703125 15.234375 C 38.71875 14.617188 38.910156 14.058594 39.273438 13.566406 C 39.65625 13.058594 40.15625 12.660156 40.777344 12.375 C 41.414062 12.070312 42.128906 11.921875 42.921875 11.921875 C 43.890625 11.9375 44.734375 12.167969 45.449219 12.613281 C 45.210938 10.765625 44.597656 9.097656 43.613281 7.601562 C 42.390625 5.820312 40.800781 4.515625 38.847656 3.691406 C 36.890625 2.863281 34.707031 2.503906 32.292969 2.617188 C 29.878906 2.726562 27.375 3.292969 24.785156 4.308594 C 22.195312 5.34375 19.660156 6.832031 17.183594 8.769531 C 15.132812 10.394531 13.347656 12.09375 11.820312 13.878906 C 10.296875 15.65625 8.984375 17.550781 7.890625 19.554688 C 6.667969 21.207031 5.648438 23.109375 4.835938 25.257812 C 4.027344 27.421875 3.496094 29.757812 3.242188 32.269531 C 2.988281 34.769531 3.035156 37.152344 3.386719 39.425781 C 3.765625 41.941406 4.457031 44.191406 5.457031 46.179688 C 6.460938 48.167969 7.699219 49.792969 9.175781 51.046875 C 10.828125 50.15625 12.332031 48.875 13.679688 47.207031 C 15.03125 45.535156 16.148438 43.5625 17.039062 41.289062 C 17.945312 39.03125 18.542969 36.558594 18.828125 33.871094 C 18.988281 32.25 19.019531 30.671875 18.921875 29.148438 C 19.589844 31.898438 19.828125 34.847656 19.636719 37.996094 C 19.429688 40.90625 18.875 43.589844 17.96875 46.039062 C 17.046875 48.503906 15.871094 50.632812 14.441406 52.429688 C 15.839844 53.449219 17.34375 54.277344 18.945312 54.914062 C 20.550781 55.5625 22.234375 56 24 56.226562 L 24 72.042969 L 26.574219 72.042969 L 26.574219 56.390625 C 28.003906 56.375 29.394531 56.226562 30.742188 55.9375 L 30.742188 72.042969 L 33.339844 72.042969 L 33.339844 55.222656 C 36.027344 54.25 38.433594 52.789062 40.5625 50.832031 C 42.675781 48.890625 44.398438 46.585938 45.734375 43.914062 C 46.148438 43.085938 46.511719 42.226562 46.832031 41.335938 C 47.484375 39.539062 47.925781 37.648438 48.164062 35.660156 C 48.261719 34.433594 48.203125 33.191406 48 31.9375 C 47.792969 30.699219 47.417969 29.464844 46.878906 28.238281 C 47.257812 28.574219 47.722656 29.074219 48.261719 29.742188 C 48.800781 30.394531 49.324219 31.191406 49.832031 32.128906 C 50.324219 33.082031 50.714844 34.164062 51 35.371094 C 51.988281 34.734375 53.144531 34.386719 54.480469 34.324219 C 55.816406 34.246094 57.230469 34.457031 58.722656 34.96875 C 60.199219 35.460938 61.644531 36.230469 63.0625 37.28125 C 64.140625 38.09375 65.078125 38.949219 65.871094 39.859375 C 66.683594 40.75 67.375 41.703125 67.945312 42.722656 C 67.738281 40.527344 67.121094 38.355469 66.085938 36.207031 C 65.054688 34.078125 63.648438 32.089844 61.867188 30.242188 C 60.105469 28.414062 58.023438 26.839844 55.625 25.519531 " fill-opacity="1" fill-rule="evenodd"/></g><g clip-path="url(#76420ccdec)"><path fill="#3e9ddb" d="M 88.953125 17.425781 C 89.402344 17.742188 89.820312 18.019531 90.207031 18.257812 C 90.601562 18.488281 90.949219 18.734375 91.25 19.003906 C 91.824219 19.550781 92.113281 20.21875 92.113281 21.003906 L 92.113281 26.726562 C 92.113281 27.734375 91.753906 28.503906 91.039062 29.039062 C 90.433594 29.539062 89.640625 29.785156 88.65625 29.785156 L 77.917969 29.785156 L 77.917969 23.550781 L 80.34375 23.550781 L 80.34375 27.488281 L 89.429688 27.488281 L 89.429688 20.925781 L 80.613281 15.515625 C 79.828125 15.058594 79.183594 14.589844 78.675781 14.113281 C 78.171875 13.628906 77.917969 12.972656 77.917969 12.144531 L 77.917969 7.894531 C 77.917969 6.574219 78.234375 5.664062 78.871094 5.167969 C 79.40625 4.75 80.332031 4.539062 81.65625 4.539062 L 91.816406 4.539062 L 91.816406 10.757812 L 89.386719 10.757812 L 89.386719 6.820312 L 80.613281 6.820312 L 80.613281 12.203125 Z M 100.289062 29.859375 C 98.539062 29.859375 97.667969 28.996094 97.667969 27.265625 L 97.667969 15.203125 L 95.507812 15.203125 L 95.507812 12.921875 L 100.394531 12.921875 L 100.394531 27.488281 L 107.082031 23.285156 L 107.082031 15.203125 L 105.429688 15.203125 L 105.429688 12.921875 L 109.808594 12.921875 L 109.808594 27.488281 L 111.925781 27.488281 L 111.925781 29.785156 L 107.082031 29.785156 L 107.082031 26.011719 L 101.496094 29.515625 C 101.140625 29.746094 100.738281 29.859375 100.289062 29.859375 Z M 100.289062 29.859375 " fill-opacity="1" fill-rule="nonzero"/></g><path fill="#3e9ddb" d="M 119.511719 27.488281 L 126.632812 27.488281 L 126.632812 15.007812 L 119.511719 19.480469 Z M 114.667969 35.914062 L 116.753906 35.914062 L 116.753906 15.277344 L 114.625 15.277344 L 114.625 12.949219 L 119.511719 12.949219 L 119.511719 16.78125 L 125.320312 13.113281 C 125.863281 12.777344 126.4375 12.609375 127.035156 12.609375 C 127.636719 12.609375 128.167969 12.796875 128.628906 13.171875 C 129.09375 13.542969 129.328125 14.082031 129.328125 14.800781 L 129.328125 26.625 C 129.328125 27.660156 129.183594 28.363281 128.894531 28.742188 C 128.328125 29.4375 127.464844 29.785156 126.304688 29.785156 L 119.511719 29.785156 L 119.511719 35.914062 L 121.730469 35.914062 L 121.730469 38.195312 L 114.667969 38.195312 Z M 114.667969 35.914062 " fill-opacity="1" fill-rule="nonzero"/><path fill="#3e9ddb" d="M 132.703125 16.246094 C 132.703125 14.03125 133.855469 12.921875 136.160156 12.921875 L 141.851562 12.921875 C 142.953125 12.921875 143.746094 13.136719 144.234375 13.5625 C 144.730469 13.992188 144.980469 14.777344 144.980469 15.917969 L 144.980469 19.050781 L 135.402344 25.101562 L 135.402344 27.488281 L 142.328125 27.488281 L 142.328125 25.535156 L 144.980469 25.535156 L 144.980469 27.324219 C 144.980469 28.003906 144.769531 28.585938 144.355469 29.070312 C 143.945312 29.546875 143.253906 29.785156 142.285156 29.785156 L 135.402344 29.785156 C 134.425781 29.785156 133.734375 29.546875 133.316406 29.070312 C 132.90625 28.585938 132.703125 28.003906 132.703125 27.324219 Z M 135.402344 22.375 L 142.285156 18.035156 L 142.285156 15.246094 L 135.402344 15.246094 Z M 135.402344 22.375 " fill-opacity="1" fill-rule="nonzero"/><path fill="#3e9ddb" d="M 158.1875 12.949219 C 159.945312 12.949219 160.824219 13.816406 160.824219 15.546875 L 160.824219 18.542969 L 158.097656 18.542969 L 158.097656 15.277344 L 152.839844 18.601562 L 152.839844 27.488281 L 154.492188 27.488281 L 154.492188 29.785156 L 148 29.785156 L 148 27.488281 L 150.128906 27.488281 L 150.128906 15.203125 L 148 15.203125 L 148 12.921875 L 152.839844 12.921875 L 152.839844 15.875 L 156.984375 13.292969 C 157.339844 13.066406 157.742188 12.949219 158.1875 12.949219 Z M 158.1875 12.949219 " fill-opacity="1" fill-rule="nonzero"/><g clip-path="url(#5eb405e28c)"><path fill="#3e9ddb" d="M 181.332031 6.820312 L 181.332031 27.488281 L 183.449219 27.488281 L 183.449219 29.785156 L 176.523438 29.785156 L 176.523438 27.488281 L 178.578125 27.488281 L 178.578125 17.871094 L 169.222656 17.871094 L 169.222656 27.488281 L 171.277344 27.488281 L 171.277344 29.785156 L 164.351562 29.785156 L 164.351562 27.488281 L 166.46875 27.488281 L 166.46875 6.820312 L 164.351562 6.820312 L 164.351562 4.539062 L 171.277344 4.539062 L 171.277344 6.820312 L 169.222656 6.820312 L 169.222656 15.605469 L 178.578125 15.605469 L 178.578125 6.820312 L 176.523438 6.820312 L 176.523438 4.539062 L 183.449219 4.539062 L 183.449219 6.820312 Z M 181.332031 6.820312 " fill-opacity="1" fill-rule="nonzero"/></g><path fill="#3e9ddb" d="M 191.734375 29.859375 C 189.984375 29.859375 189.113281 28.996094 189.113281 27.265625 L 189.113281 15.203125 L 186.953125 15.203125 L 186.953125 12.921875 L 191.839844 12.921875 L 191.839844 27.488281 L 198.527344 23.285156 L 198.527344 15.203125 L 196.875 15.203125 L 196.875 12.921875 L 201.253906 12.921875 L 201.253906 27.488281 L 203.367188 27.488281 L 203.367188 29.785156 L 198.527344 29.785156 L 198.527344 26.011719 L 192.941406 29.515625 C 192.585938 29.746094 192.183594 29.859375 191.734375 29.859375 Z M 191.734375 29.859375 " fill-opacity="1" fill-rule="nonzero"/><path fill="#3e9ddb" d="M 226.09375 12.609375 C 227.839844 12.609375 228.714844 13.472656 228.714844 15.203125 L 228.714844 27.488281 L 230.859375 27.488281 L 230.859375 29.785156 L 224.378906 29.785156 L 224.378906 27.488281 L 225.988281 27.488281 L 225.988281 14.960938 L 219.835938 18.8125 L 219.835938 27.488281 L 221.476562 27.488281 L 221.476562 29.785156 L 215.457031 29.785156 L 215.457031 27.488281 L 217.082031 27.488281 L 217.109375 27.355469 L 217.109375 14.933594 L 210.914062 18.8125 L 210.914062 27.488281 L 212.566406 27.488281 L 212.566406 29.785156 L 206.074219 29.785156 L 206.074219 27.488281 L 208.203125 27.488281 L 208.203125 15.203125 L 206.074219 15.203125 L 206.074219 12.949219 L 210.914062 12.949219 L 210.914062 16.15625 L 215.992188 12.949219 C 216.359375 12.722656 216.769531 12.609375 217.214844 12.609375 C 218.960938 12.609375 219.835938 13.472656 219.835938 15.203125 L 219.835938 16.113281 L 224.886719 12.949219 C 225.242188 12.722656 225.644531 12.609375 226.09375 12.609375 Z M 226.09375 12.609375 " fill-opacity="1" fill-rule="nonzero"/><path fill="#3e9ddb" d="M 247.429688 27.488281 L 247.429688 29.785156 L 235.71875 29.785156 C 234.574219 29.785156 233.800781 29.5625 233.394531 29.113281 C 233.039062 28.707031 232.859375 27.945312 232.859375 26.816406 L 232.859375 25.578125 C 232.859375 24.765625 232.957031 24.214844 233.15625 23.925781 C 233.457031 23.5 234.117188 22.96875 235.152344 22.34375 L 242.542969 17.738281 L 242.542969 15.246094 L 235.957031 15.246094 L 235.957031 17.199219 L 233.796875 17.199219 L 233.796875 12.949219 L 242.214844 12.949219 C 243.351562 12.949219 244.152344 13.199219 244.613281 13.695312 C 245.078125 14.183594 245.3125 14.898438 245.3125 15.84375 L 245.3125 27.488281 Z M 242.542969 20.421875 L 235.554688 24.804688 L 235.554688 27.488281 L 242.542969 27.488281 Z M 242.542969 20.421875 " fill-opacity="1" fill-rule="nonzero"/><path fill="#3e9ddb" d="M 261.730469 12.609375 C 263.480469 12.609375 264.355469 13.472656 264.355469 15.203125 L 264.355469 27.488281 L 266.5 27.488281 L 266.5 29.785156 L 260.003906 29.785156 L 260.003906 27.488281 L 261.628906 27.488281 L 261.628906 14.960938 L 254.925781 19.183594 L 254.925781 27.488281 L 256.578125 27.488281 L 256.578125 29.785156 L 250.082031 29.785156 L 250.082031 27.488281 L 252.210938 27.488281 L 252.210938 15.203125 L 250.082031 15.203125 L 250.082031 12.949219 L 254.925781 12.949219 L 254.925781 16.453125 L 260.511719 12.949219 C 260.867188 12.722656 261.273438 12.609375 261.730469 12.609375 Z M 261.730469 12.609375 " fill-opacity="1" fill-rule="nonzero"/><g clip-path="url(#728d6c3972)"><path fill="#3e9ddb" d="M 289.089844 27.488281 L 289.089844 29.785156 L 282.429688 29.785156 L 282.429688 27.488281 L 284.246094 27.488281 L 278.496094 18.242188 L 274.921875 20.421875 L 274.921875 27.488281 L 277.113281 27.488281 L 277.113281 29.785156 L 270.050781 29.785156 L 270.050781 27.488281 L 272.167969 27.488281 L 272.167969 6.820312 L 270.050781 6.820312 L 270.050781 4.539062 L 282.058594 4.539062 C 283.535156 4.539062 284.535156 4.832031 285.050781 5.40625 C 285.566406 5.972656 285.828125 7.085938 285.828125 8.746094 L 285.828125 10.832031 C 285.828125 11.691406 285.746094 12.363281 285.589844 12.859375 C 285.429688 13.347656 285.144531 13.792969 284.738281 14.1875 C 284.339844 14.574219 283.804688 14.972656 283.128906 15.378906 C 282.453125 15.78125 281.605469 16.289062 280.582031 16.917969 L 287.195312 27.488281 Z M 274.921875 17.738281 L 283.367188 12.519531 L 283.367188 6.820312 L 274.921875 6.820312 Z M 274.921875 17.738281 " fill-opacity="1" fill-rule="nonzero"/></g><path fill="#3e9ddb" d="M 304.84375 27.488281 L 304.84375 29.785156 L 293.136719 29.785156 C 291.992188 29.785156 291.21875 29.5625 290.8125 29.113281 C 290.457031 28.707031 290.277344 27.945312 290.277344 26.816406 L 290.277344 25.578125 C 290.277344 24.765625 290.375 24.214844 290.574219 23.925781 C 290.871094 23.5 291.535156 22.96875 292.570312 22.34375 L 299.957031 17.738281 L 299.957031 15.246094 L 293.375 15.246094 L 293.375 17.199219 L 291.214844 17.199219 L 291.214844 12.949219 L 299.632812 12.949219 C 300.769531 12.949219 301.570312 13.199219 302.03125 13.695312 C 302.496094 14.183594 302.730469 14.898438 302.730469 15.84375 L 302.730469 27.488281 Z M 299.957031 20.421875 L 292.972656 24.804688 L 292.972656 27.488281 L 299.957031 27.488281 Z M 299.957031 20.421875 " fill-opacity="1" fill-rule="nonzero"/><path fill="#3e9ddb" d="M 319.148438 29.785156 L 310.761719 29.785156 C 309.152344 29.785156 308.222656 29.179688 307.976562 27.964844 C 307.886719 27.609375 307.84375 27.226562 307.84375 26.816406 L 307.84375 15.917969 C 307.84375 14.972656 308.101562 14.242188 308.632812 13.710938 C 309.15625 13.183594 309.957031 12.921875 311.03125 12.921875 L 319.148438 12.921875 L 319.148438 17.199219 L 316.855469 17.199219 L 316.855469 15.246094 L 310.539062 15.246094 L 310.539062 27.488281 L 316.855469 27.488281 L 316.855469 25.535156 L 319.148438 25.535156 Z M 319.148438 29.785156 " fill-opacity="1" fill-rule="nonzero"/><path fill="#3e9ddb" d="M 322.164062 16.246094 C 322.164062 14.03125 323.316406 12.921875 325.621094 12.921875 L 331.3125 12.921875 C 332.414062 12.921875 333.207031 13.136719 333.695312 13.5625 C 334.191406 13.992188 334.441406 14.777344 334.441406 15.917969 L 334.441406 19.050781 L 324.863281 25.101562 L 324.863281 27.488281 L 331.789062 27.488281 L 331.789062 25.535156 L 334.441406 25.535156 L 334.441406 27.324219 C 334.441406 28.003906 334.230469 28.585938 333.8125 29.070312 C 333.40625 29.546875 332.714844 29.785156 331.742188 29.785156 L 324.863281 29.785156 C 323.886719 29.785156 323.195312 29.546875 322.777344 29.070312 C 322.367188 28.585938 322.164062 28.003906 322.164062 27.324219 Z M 324.863281 22.375 L 331.742188 18.035156 L 331.742188 15.246094 L 324.863281 15.246094 Z M 324.863281 22.375 " fill-opacity="1" fill-rule="nonzero"/><path fill="#d29500" d="M 123.84375 46.3125 C 125.164062 46.3125 126.082031 46.605469 126.585938 47.179688 C 127.09375 47.757812 127.347656 48.636719 127.347656 49.816406 L 127.347656 62.851562 C 127.347656 64.085938 127.054688 64.980469 126.484375 65.535156 C 125.914062 66.082031 125.039062 66.355469 123.84375 66.355469 L 114.429688 66.355469 L 114.429688 64.535156 L 116.097656 64.535156 L 116.097656 48.132812 L 114.429688 48.132812 L 114.429688 46.3125 Z M 125.15625 48.132812 L 118.289062 48.132812 L 118.289062 64.535156 L 125.15625 64.535156 Z M 132.476562 66.355469 C 131.574219 66.355469 130.933594 66.144531 130.554688 65.730469 C 130.1875 65.308594 130.003906 64.730469 130.003906 63.984375 L 130.003906 55.363281 C 130.003906 54.660156 130.167969 54.089844 130.496094 53.648438 C 130.824219 53.214844 131.484375 52.996094 132.476562 52.996094 L 137.421875 52.996094 C 138.394531 52.996094 139.050781 53.214844 139.390625 53.648438 C 139.734375 54.089844 139.910156 54.660156 139.910156 55.363281 L 139.910156 63.984375 C 139.910156 64.730469 139.71875 65.308594 139.34375 65.730469 C 138.964844 66.144531 138.324219 66.355469 137.421875 66.355469 Z M 132.164062 64.535156 L 137.734375 64.535156 L 137.734375 54.8125 L 132.164062 54.8125 Z M 132.164062 64.535156 " fill-opacity="1" fill-rule="nonzero"/><path fill="#d29500" d="M 151.917969 49.386719 C 151.917969 47.339844 152.863281 46.3125 154.761719 46.3125 L 163.179688 46.3125 L 163.179688 51.265625 L 161.035156 51.265625 L 161.035156 48.132812 L 154.09375 48.132812 L 154.09375 64.535156 L 161.035156 64.535156 L 161.035156 58.289062 L 157.324219 60.613281 L 157.324219 58.660156 L 163.179688 54.992188 L 163.179688 66.355469 L 155.253906 66.355469 C 153.980469 66.355469 153.117188 66.125 152.664062 65.652344 C 152.164062 65.175781 151.917969 64.308594 151.917969 63.042969 Z M 151.917969 49.386719 " fill-opacity="1" fill-rule="nonzero"/><path fill="#d29500" d="M 168.347656 66.355469 C 167.441406 66.355469 166.804688 66.144531 166.425781 65.730469 C 166.058594 65.308594 165.875 64.730469 165.875 63.984375 L 165.875 55.363281 C 165.875 54.660156 166.039062 54.089844 166.367188 53.648438 C 166.695312 53.214844 167.355469 52.996094 168.347656 52.996094 L 173.292969 52.996094 C 174.265625 52.996094 174.921875 53.214844 175.261719 53.648438 C 175.605469 54.089844 175.78125 54.660156 175.78125 55.363281 L 175.78125 63.984375 C 175.78125 64.730469 175.589844 65.308594 175.214844 65.730469 C 174.835938 66.144531 174.195312 66.355469 173.292969 66.355469 Z M 168.035156 64.535156 L 173.605469 64.535156 L 173.605469 54.8125 L 168.035156 54.8125 Z M 168.035156 64.535156 " fill-opacity="1" fill-rule="nonzero"/><path fill="#d29500" d="M 180.390625 66.355469 C 179.484375 66.355469 178.84375 66.144531 178.46875 65.730469 C 178.101562 65.308594 177.917969 64.730469 177.917969 63.984375 L 177.917969 55.363281 C 177.917969 54.660156 178.082031 54.089844 178.410156 53.648438 C 178.738281 53.214844 179.398438 52.996094 180.390625 52.996094 L 185.335938 52.996094 C 186.308594 52.996094 186.964844 53.214844 187.304688 53.648438 C 187.648438 54.089844 187.824219 54.660156 187.824219 55.363281 L 187.824219 63.984375 C 187.824219 64.730469 187.632812 65.308594 187.257812 65.730469 C 186.878906 66.144531 186.238281 66.355469 185.335938 66.355469 Z M 180.078125 64.535156 L 185.648438 64.535156 L 185.648438 54.8125 L 180.078125 54.8125 Z M 180.078125 64.535156 " fill-opacity="1" fill-rule="nonzero"/><path fill="#d29500" d="M 201.894531 64.503906 L 201.894531 66.355469 L 198.019531 66.355469 L 198.019531 63.28125 L 193.402344 66.191406 C 192.84375 66.476562 192.324219 66.621094 191.839844 66.621094 C 191.351562 66.621094 190.960938 66.445312 190.664062 66.085938 C 190.371094 65.730469 190.230469 65.320312 190.230469 64.863281 L 190.230469 55.5 C 190.230469 54.6875 190.351562 54.128906 190.601562 53.828125 C 191.027344 53.273438 191.707031 52.996094 192.628906 52.996094 L 198.019531 52.996094 L 198.019531 48.132812 L 196.261719 48.132812 L 196.261719 46.3125 L 200.210938 46.3125 L 200.210938 64.503906 Z M 198.019531 54.8125 L 192.359375 54.8125 L 192.359375 64.667969 L 198.019531 61.152344 Z M 198.019531 54.8125 " fill-opacity="1" fill-rule="nonzero"/><path fill="#d29500" d="M 216.574219 64.535156 L 218.257812 64.535156 L 218.257812 48.132812 L 214.890625 48.132812 L 214.890625 51.28125 L 212.96875 51.28125 L 212.96875 46.3125 L 225.75 46.3125 L 225.75 51.28125 L 223.800781 51.28125 L 223.800781 48.132812 L 220.445312 48.132812 L 220.445312 64.535156 L 222.175781 64.535156 L 222.175781 66.355469 L 216.574219 66.355469 Z M 216.574219 64.535156 " fill-opacity="1" fill-rule="nonzero"/><path fill="#d29500" d="M 240.519531 64.535156 L 240.519531 66.355469 L 235.367188 66.355469 L 235.367188 64.535156 L 236.648438 64.535156 L 236.648438 54.648438 L 231.34375 57.988281 L 231.34375 64.535156 L 232.65625 64.535156 L 232.65625 66.355469 L 227.5 66.355469 L 227.5 64.535156 L 229.183594 64.535156 L 229.183594 48.132812 L 227.5 48.132812 L 227.5 46.3125 L 231.34375 46.3125 L 231.34375 55.828125 L 235.765625 53.054688 C 236.101562 52.835938 236.5 52.726562 236.960938 52.726562 C 237.425781 52.726562 237.847656 52.910156 238.226562 53.277344 C 238.613281 53.648438 238.808594 54.167969 238.808594 54.84375 L 238.808594 64.535156 Z M 240.519531 64.535156 " fill-opacity="1" fill-rule="nonzero"/><path fill="#d29500" d="M 246.796875 64.535156 L 248.542969 64.535156 L 248.542969 66.355469 L 242.941406 66.355469 L 242.941406 64.535156 L 244.609375 64.535156 L 244.609375 54.8125 L 242.941406 54.8125 L 242.941406 52.996094 L 246.796875 52.996094 Z M 245.710938 48.074219 C 246.085938 48.074219 246.402344 48.214844 246.664062 48.492188 C 246.921875 48.769531 247.050781 49.101562 247.050781 49.488281 C 247.050781 49.871094 246.921875 50.1875 246.664062 50.445312 C 246.402344 50.707031 246.082031 50.832031 245.695312 50.832031 C 245.316406 50.832031 245 50.707031 244.742188 50.445312 C 244.480469 50.1875 244.355469 49.871094 244.355469 49.488281 C 244.355469 49.101562 244.480469 48.769531 244.742188 48.492188 C 245.011719 48.214844 245.332031 48.074219 245.710938 48.074219 Z M 245.710938 48.074219 " fill-opacity="1" fill-rule="nonzero"/><path fill="#d29500" d="M 259.9375 52.726562 C 261.316406 52.726562 262.007812 53.410156 262.007812 54.785156 L 262.007812 64.535156 L 263.722656 64.535156 L 263.722656 66.355469 L 258.566406 66.355469 L 258.566406 64.535156 L 259.847656 64.535156 L 259.847656 54.605469 L 254.542969 57.945312 L 254.542969 64.535156 L 255.855469 64.535156 L 255.855469 66.355469 L 250.699219 66.355469 L 250.699219 64.535156 L 252.382812 64.535156 L 252.382812 54.785156 L 250.699219 54.785156 L 250.699219 52.996094 L 254.542969 52.996094 L 254.542969 55.765625 L 258.96875 52.996094 C 259.253906 52.816406 259.578125 52.726562 259.9375 52.726562 Z M 259.9375 52.726562 " fill-opacity="1" fill-rule="nonzero"/><g clip-path="url(#4ee0b9d920)"><path fill="#d29500" d="M 276.015625 54.8125 L 276.015625 69.902344 C 276.015625 70.65625 275.832031 71.230469 275.464844 71.617188 C 275.097656 72.007812 274.460938 72.199219 273.558594 72.199219 L 267.09375 72.199219 L 267.09375 68.578125 L 268.910156 68.578125 L 268.910156 70.367188 L 273.828125 70.367188 L 273.828125 63.386719 L 269.253906 66.28125 C 268.867188 66.507812 268.433594 66.621094 267.957031 66.621094 C 267.488281 66.621094 267.066406 66.4375 266.691406 66.070312 C 266.324219 65.707031 266.140625 65.257812 266.140625 64.730469 L 266.140625 55.351562 C 266.140625 54.476562 266.253906 53.902344 266.484375 53.636719 C 266.871094 53.210938 267.511719 52.996094 268.40625 52.996094 L 277.699219 52.996094 L 277.699219 54.8125 Z M 273.828125 54.8125 L 268.210938 54.8125 L 268.210938 64.742188 L 273.828125 61.226562 Z M 273.828125 54.8125 " fill-opacity="1" fill-rule="nonzero"/></g><path fill="#d29500" d="M 289.15625 64 C 289.15625 65.570312 288.390625 66.355469 286.863281 66.355469 L 280.398438 66.355469 L 280.398438 62.3125 L 282.214844 62.3125 L 282.214844 64.535156 L 287.027344 64.535156 L 287.027344 62.3125 L 282.644531 59.570312 C 282.199219 59.28125 281.816406 59.046875 281.5 58.867188 C 281.179688 58.691406 280.910156 58.511719 280.695312 58.332031 C 280.308594 57.984375 280.113281 57.507812 280.113281 56.902344 L 280.113281 55.363281 C 280.113281 54.621094 280.238281 54.109375 280.488281 53.828125 C 280.964844 53.273438 281.671875 52.996094 282.617188 52.996094 L 288.84375 52.996094 L 288.84375 57.003906 L 287.027344 57.003906 L 287.027344 54.8125 L 282.214844 54.8125 L 282.214844 57.050781 L 286.757812 59.882812 C 287.121094 60.121094 287.457031 60.328125 287.757812 60.492188 C 288.054688 60.664062 288.296875 60.835938 288.484375 61.015625 C 288.933594 61.386719 289.15625 61.828125 289.15625 62.34375 Z M 289.15625 64 " fill-opacity="1" fill-rule="nonzero"/><path fill="#d29500" d="M 293.410156 46.925781 L 295.597656 46.925781 L 295.597656 61.195312 L 293.410156 61.195312 Z M 294.539062 63.714844 C 294.90625 63.714844 295.21875 63.859375 295.480469 64.148438 C 295.738281 64.425781 295.867188 64.753906 295.867188 65.132812 C 295.867188 65.5 295.738281 65.8125 295.480469 66.070312 C 295.21875 66.332031 294.902344 66.457031 294.527344 66.457031 C 294.15625 66.457031 293.839844 66.332031 293.574219 66.070312 C 293.304688 65.8125 293.171875 65.5 293.171875 65.132812 C 293.171875 64.753906 293.308594 64.425781 293.585938 64.148438 C 293.863281 63.859375 294.183594 63.714844 294.539062 63.714844 Z M 294.539062 63.714844 " fill-opacity="1" fill-rule="nonzero"/><g clip-path="url(#958ecb75bd)"><path fill="#737373" d="M 52.488281 4.667969 C 52.488281 4.574219 52.523438 4.496094 52.585938 4.429688 C 52.652344 4.363281 52.734375 4.328125 52.828125 4.328125 L 56.894531 4.328125 C 56.988281 4.328125 57.066406 4.363281 57.132812 4.429688 C 57.199219 4.496094 57.230469 4.574219 57.230469 4.667969 C 57.230469 4.761719 57.199219 4.84375 57.132812 4.90625 C 57.066406 4.972656 56.988281 5.007812 56.894531 5.007812 L 55.199219 5.007812 L 55.199219 9.1875 C 55.199219 9.28125 55.164062 9.359375 55.101562 9.425781 C 55.035156 9.492188 54.953125 9.523438 54.859375 9.523438 C 54.765625 9.523438 54.6875 9.492188 54.621094 9.425781 C 54.554688 9.359375 54.519531 9.28125 54.519531 9.1875 L 54.519531 5.007812 L 52.828125 5.007812 C 52.734375 5.007812 52.652344 4.972656 52.585938 4.90625 C 52.523438 4.84375 52.488281 4.761719 52.488281 4.667969 Z M 60.054688 6.386719 L 58.511719 4.457031 C 58.414062 4.332031 58.285156 4.296875 58.136719 4.347656 C 57.984375 4.402344 57.910156 4.507812 57.910156 4.667969 L 57.910156 9.1875 C 57.910156 9.28125 57.941406 9.359375 58.007812 9.425781 C 58.074219 9.492188 58.15625 9.523438 58.25 9.523438 C 58.339844 9.523438 58.421875 9.492188 58.488281 9.425781 C 58.554688 9.359375 58.585938 9.28125 58.585938 9.1875 L 58.585938 5.632812 L 59.789062 7.140625 C 59.859375 7.21875 59.949219 7.257812 60.054688 7.257812 C 60.160156 7.257812 60.25 7.21875 60.320312 7.140625 L 61.523438 5.632812 L 61.523438 9.1875 C 61.523438 9.28125 61.554688 9.359375 61.621094 9.425781 C 61.6875 9.492188 61.769531 9.523438 61.863281 9.523438 C 61.957031 9.523438 62.035156 9.492188 62.101562 9.425781 C 62.167969 9.359375 62.199219 9.28125 62.199219 9.1875 L 62.199219 4.667969 C 62.199219 4.507812 62.125 4.402344 61.972656 4.347656 C 61.824219 4.296875 61.699219 4.332031 61.597656 4.457031 Z M 60.054688 6.386719 " fill-opacity="1" fill-rule="nonzero"/></g></svg>